 <svg version="1.0" xmlns="http://www.w3.org/2000/svg"  width="249.000000pt" height="100.000000pt" viewBox="0 0 249.000000 100.000000"  preserveAspectRatio="xMidYMid meet">  <g transform="translate(0.000000,100.000000) scale(0.100000,-0.100000)" fill="#000000" stroke="none"> <path d="M145 605 c-20 -19 -25 -33 -23 -72 1 -39 2 -41 5 -13 6 64 13 79 41 94 15 9 21 15 14 16 -7 0 -24 -11 -37 -25z"/> <path d="M725 553 c-15 -37 -36 -75 -46 -85 -27 -24 -24 -28 24 -28 37 1 40 2 24 14 -25 19 -11 46 24 46 30 0 54 -30 31 -38 -27 -9 -9 -17 38 -18 53 -1 59 2 35 20 -8 6 -28 43 -44 81 -16 39 -36 71 -44 73 -9 2 -24 -22 -42 -65z m44 -30 c1 -7 -8 -13 -19 -13 -23 0 -23 0 -9 37 10 26 12 27 19 8 5 -11 9 -26 9 -32z"/> <path d="M894 608 c-3 -4 2 -8 10 -8 13 0 16 -13 16 -70 0 -57 -3 -70 -16 -70 -8 0 -13 -4 -10 -8 7 -12 145 -5 161 8 30 25 11 70 -29 70 -18 1 -17 3 7 16 33 18 36 52 5 58 -46 10 -139 12 -144 4z m110 -23 c8 -21 -3 -45 -20 -45 -9 0 -14 11 -14 30 0 32 23 42 34 15z m6 -70 c16 -19 3 -55 -21 -55 -15 0 -19 7 -19 35 0 37 18 47 40 20z"/> <path d="M1110 608 c0 -5 7 -8 15 -8 22 0 22 -128 0 -144 -12 -8 5 -11 72 -11 l88 0 3 28 c4 32 -8 35 -26 7 -8 -13 -23 -20 -42 -20 -28 0 -30 3 -30 35 0 40 12 45 33 14 18 -24 25 -15 21 26 -3 42 -3 42 -15 23 -16 -29 -39 -22 -39 12 0 25 4 30 24 30 13 0 29 -7 36 -15 18 -22 32 -18 28 8 -3 21 -8 22 -85 22 -46 0 -83 -3 -83 -7z"/> <path d="M1320 612 c0 -5 7 -12 15 -16 11 -4 15 -21 15 -66 0 -45 -4 -62 -15 -66 -28 -11 -15 -21 25 -21 40 0 53 10 25 21 -11 4 -15 20 -15 57 l0 52 53 -66 c28 -36 58 -66 65 -66 8 -1 12 20 12 74 0 58 4 77 15 81 28 11 15 21 -25 21 -40 0 -53 -10 -26 -20 13 -5 28 -87 16 -87 -3 0 -23 23 -45 50 -26 33 -47 50 -61 50 -13 0 -29 3 -38 6 -9 3 -16 2 -16 -4z"/> <path d="M1563 608 c-2 -5 3 -8 11 -8 23 0 23 -128 0 -145 -13 -9 2 -11 72 -11 l89 1 3 28 c4 32 -8 35 -26 7 -8 -13 -23 -20 -42 -20 -28 0 -30 3 -30 35 0 40 12 45 34 13 9 -12 16 -20 17 -18 11 47 -1 100 -15 65 -10 -28 -36 -17 -36 15 0 25 4 30 24 30 13 0 29 -7 36 -15 18 -22 32 -18 28 8 -3 21 -8 22 -81 22 -44 0 -81 -3 -84 -7z"/> <path d="M1787 614 c-9 -10 -9 -54 1 -54 4 0 13 9 20 20 8 13 23 20 42 20 l30 0 -55 -73 c-30 -41 -55 -76 -55 -78 0 -2 38 -5 84 -7 83 -3 84 -2 90 24 9 35 -3 44 -21 17 -11 -16 -25 -23 -49 -23 -19 0 -34 3 -34 6 0 4 23 35 50 70 28 35 50 67 50 71 0 10 -144 16 -153 7z"/> <path d="M1980 609 c0 -4 7 -9 15 -13 11 -4 15 -21 15 -66 0 -45 -4 -62 -15 -66 -32 -13 -11 -19 70 -21 l85 -3 -1 33 c0 32 0 32 -16 10 -10 -15 -26 -23 -43 -23 -23 0 -28 5 -32 30 -6 40 10 49 33 19 l19 -24 -1 45 c0 40 -1 43 -13 28 -22 -30 -43 -23 -38 12 3 24 9 30 28 30 14 0 27 -7 30 -15 9 -24 24 -18 24 10 0 25 -1 25 -80 22 -44 -1 -80 -5 -80 -8z"/> <path d="M2190 610 c0 -4 7 -10 15 -14 11 -4 15 -21 15 -66 0 -45 -4 -62 -15 -66 -30 -12 -14 -20 35 -20 27 1 50 2 50 4 0 2 -7 10 -15 18 -16 17 -20 54 -6 54 5 0 19 -16 31 -35 12 -19 29 -35 38 -35 9 0 27 -3 40 -6 13 -4 22 -2 22 5 0 6 -6 11 -14 11 -7 0 -25 15 -39 33 -24 32 -25 34 -6 45 22 14 25 45 5 61 -15 13 -156 23 -156 11z m115 -30 c7 -24 -10 -50 -32 -50 -10 0 -13 6 -9 16 3 9 6 24 6 35 0 25 27 24 35 -1z"/> <path d="M230 549 c-13 -34 -32 -66 -42 -73 -28 -17 -22 -26 17 -26 33 0 48 14 24 22 -19 6 3 38 27 38 26 0 47 -31 26 -38 -27 -9 -9 -19 32 -18 40 1 81 16 44 16 -9 0 -26 27 -43 70 -36 89 -52 91 -85 9z m43 -9 c4 -15 0 -20 -15 -20 -14 0 -18 5 -14 16 3 9 6 20 6 25 0 17 17 1 23 -21z"/> <path d="M393 599 c13 -8 17 -23 17 -69 0 -33 -4 -60 -10 -60 -5 0 -10 -4 -10 -8 0 -5 20 -9 45 -9 50 0 52 2 30 23 -15 16 -21 54 -7 54 4 0 17 -17 28 -38 18 -31 28 -37 58 -39 20 -2 36 -1 36 1 0 2 -18 22 -41 45 -22 22 -39 46 -37 53 3 7 19 23 38 36 l33 22 -44 0 c-31 0 -40 -3 -29 -10 12 -7 11 -13 -10 -34 -13 -15 -27 -26 -32 -26 -11 0 2 53 16 62 6 4 -14 8 -44 8 -42 -1 -51 -3 -37 -11z"/> <path d="M617 600 c4 -8 10 -37 14 -65 l6 -50 2 46 c0 28 -5 52 -15 65 -8 10 -12 12 -7 4z"/> </g> </svg> 